<svg xmlns="http://www.w3.org/2000/svg" enable-background="new 0 0 32 32" viewBox="0 0 32 32" id="TheMovieDatabase"><path fill="#f89e00" d="M26,32H6c-3.314,0-6-2.686-6-6V6c0-3.314,2.686-6,6-6h20c3.314,0,6,2.686,6,6v20C32,29.314,29.314,32,26,32z" class="colore3f8fa svgShape"></path><polygon fill="#da2662" points="17.373 12.801 17.373 12.801 16.061 11.133 15.818 11.133 15.818 14.989 16.587 14.989 16.587 12.869 17.373 13.89 18.161 12.869 18.155 14.989 18.924 14.989 18.924 11.133 18.685 11.133" class="color26c6da svgShape"></polygon><path fill="#da2f68" d="M19,16.794c0.015-0.669-0.403-1.153-1.076-1.153h-1.5v3.804h1.5c0.619-0.005,1.118-0.509,1.118-1.129v-0.019c0-0.311-0.154-0.585-0.389-0.751l-0.003-0.002l-0.001-0.001C18.888,17.379,18.99,17.084,19,16.794z M18.208,16.783c0.001,0.008,0.001,0.018,0.001,0.027c0,0.195-0.157,0.354-0.351,0.355h-0.674v-0.765h0.673C18.075,16.401,18.208,16.571,18.208,16.783z M18.239,18.308c0,0.209-0.168,0.377-0.377,0.377h-0.001h-0.004h-0.674v-0.759h0.683c0.206,0,0.372,0.167,0.372,0.373V18.308z" class="color8ce1eb svgShape"></path><path fill="#da2662" d="M23.334,10.354C23.334,8.95,22.386,8,20.984,8h-9.969c-1.401,0-2.349,0.949-2.349,2.354V24l1.204-1.401V10.354c0.001-0.633,0.512-1.145,1.144-1.146h9.969c0.631,0.001,1.143,0.513,1.144,1.146v9.891c-0.001,0.633-0.512,1.145-1.144,1.146H12.62l-1.195,1.199l9.559,0.009c1.401,0,2.349-0.949,2.349-2.354V10.354z" class="color26c6da svgShape"></path><polygon fill="#da2f68" points="12.698 11.887 13.642 11.887 13.642 14.926 14.4 14.926 14.4 11.887 15.343 11.887 15.343 11.133 12.698 11.133" class="color8ce1eb svgShape"></polygon><path fill="#da2662" d="M13.862,15.644h-1.129v3.799h1.129C16.386,19.443,16.386,15.644,13.862,15.644z M13.862,18.683L13.862,18.683l-0.367,0.001v-2.279h0.367C15.336,16.404,15.336,18.683,13.862,18.683z" class="color26c6da svgShape"></path><polygon fill="#da2f68" points="11.421 22.599 11.43 22.59 11.414 22.59" class="color8ce1eb svgShape"></polygon></svg>